<svg xmlns="http://www.w3.org/2000/svg" viewBox="0 0 370.1073342235594 156.02039816063785" preserveAspectRatio="xMidYMid meet" class="css-1cs2450" id="ghabeagb" style="&#10;"><defs id="SvgjsDefs1011"/><g id="SvgjsG1012" featurekey="OZnL1P-0" transform="matrix(1.1099246244430716,0,0,1.1099246244430716,-5.035866355209734,30.449266504353396)" fill="#777777"><path xmlns="http://www.w3.org/2000/svg" d="M86.229,50.001l0.721-0.723c10.115-10.115,10.116-26.574,0-36.69s-26.575-10.116-36.691,0l-0.722,0.721l-0.721-0.721  C38.7,2.472,22.24,2.472,12.124,12.588C2.008,22.704,2.008,39.163,12.125,49.278l0.721,0.723l-0.721,0.721  C2.008,60.838,2.008,77.296,12.124,87.414c10.117,10.115,26.577,10.115,36.692,0l0.721-0.722l0.722,0.722  c10.116,10.115,26.575,10.115,36.691,0c10.116-10.118,10.115-26.576,0-36.692L86.229,50.001z M53.453,15.783  c8.354-8.354,21.947-8.354,30.3,0c8.354,8.354,8.354,21.948,0.001,30.301L59.431,70.407c-1.862,1.863-2.316,4.073-0.109,6.306  l0.831,0.806c4.66,4.66,12.242,4.66,16.902,0s4.66-12.243,0.001-16.903l-0.722-0.722l1.751-1.75l0.722,0.722  c5.627,5.625,5.627,14.78,0,20.405c-5.625,5.625-14.781,5.625-20.406,0c0,0-0.354-0.298-0.833-0.78  c-0.44-0.447-4.823-4.899,0.112-9.835l24.322-24.323c7.389-7.388,7.389-19.409,0-26.798c-7.388-7.387-19.408-7.387-26.796,0.001  l-0.723,0.721l-1.752-1.751L53.453,15.783z M73.86,74.325c-2.899,2.897-7.615,2.897-10.514,0l-0.721-0.722l10.513-10.513l0.722,0.72  C76.758,66.71,76.758,71.425,73.86,74.325z M15.319,15.783c8.354-8.354,21.948-8.354,30.302,0l24.321,24.321l-1.752,1.754  L43.868,17.535c-7.389-7.388-19.408-7.388-26.796,0c-7.389,7.388-7.389,19.409,0,26.797l0.721,0.722l-1.752,1.752l-0.722-0.721  C6.965,37.731,6.965,24.138,15.319,15.783z M62.626,26.398l0.721-0.722c2.898-2.898,7.614-2.898,10.514,0  c2.897,2.898,2.897,7.613,0,10.514l-0.722,0.721L62.626,26.398z M24.337,58.297l-2.319,2.318c-4.661,4.66-4.66,12.243,0,16.903  c4.659,4.66,12.242,4.66,16.902,0l0.722-0.722c3.561-3.559-0.725-7.104-2.787-9.167l-1.343-1.354l-6.383-6.383l1.752-1.75  l8.49,8.489l0.67,0.672c6.242,6.239,1.837,10.76,1.353,11.244l-0.722,0.722c-5.626,5.628-14.78,5.625-20.407,0  c-5.625-5.625-5.625-14.78,0.001-20.407L44.59,34.54l1.751,1.754L34.23,48.403L24.337,58.297z M25.934,63.091l10.513,10.51  l-0.722,0.723c-2.899,2.897-7.614,2.899-10.512,0c-2.898-2.898-2.898-7.615,0-10.513L25.934,63.091z M49.536,39.488l10.512,10.513  L49.536,60.512L39.023,50.001L49.536,39.488z M38.921,22.483c-4.66-4.662-12.243-4.66-16.902,0c-4.66,4.658-4.661,12.242,0,16.902  l0.721,0.722l-1.752,1.751l-0.722-0.721c-5.626-5.627-5.625-14.781,0-20.408c5.627-5.625,14.781-5.626,20.407,0l24.323,24.323  l-1.752,1.752L38.921,22.483z M36.447,26.399L25.934,36.911l-0.721-0.721c-2.899-2.899-2.899-7.615-0.001-10.514  c2.898-2.898,7.614-2.898,10.513,0.002L36.447,26.399z M83.753,84.218c-8.353,8.354-21.946,8.354-30.3,0l-0.909-0.813  c-0.198-0.199-1.873-1.863-3.107-4.434c-1.151,2.43-2.679,4.096-3.094,4.525l-0.722,0.722c-8.354,8.354-21.948,8.354-30.302,0  c-8.354-8.354-8.354-21.947,0-30.303l24.323-24.321l1.752,1.753L17.072,55.669c-7.389,7.389-7.389,19.409,0,26.797  c7.388,7.389,19.408,7.389,26.796,0l0.761-0.762c1.918-1.991,3.366-5.064,3.473-8.229c0-0.093,0.007-0.186,0.009-0.277  c0.022-2.474-0.788-4.981-2.86-7.055c-1.284-1.284-3.86-3.86-3.86-3.86l-0.371-0.395l-6.942-6.941l1.752-1.753l9.693,9.693  l0.813,0.828c1.438,1.439,2.459,2.871,3.161,4.269c0.705-1.348,1.705-2.73,3.102-4.128l0.134-0.148l24.324-24.322  c4.659-4.66,4.659-12.244-0.001-16.904c-4.659-4.66-12.242-4.66-16.902,0l-0.722,0.723l-1.751-1.752l0.721-0.723  c5.625-5.625,14.781-5.625,20.406,0c5.627,5.627,5.627,14.781,0,20.406L54.482,65.46l-0.767,0.77  c-4.868,4.868-2.956,11.839,0.604,15.397l0.886,0.839c7.388,7.389,19.408,7.389,26.796,0c7.389-7.388,7.389-19.408,0-26.797  l-0.722-0.722l1.752-1.753l0.722,0.723C92.107,62.271,92.107,75.863,83.753,84.218z" style="&#10;    fill: white;&#10;"/></g><g id="SvgjsG1013" featurekey="gRwfgl-0" transform="matrix(5.686842090341249,0,0,5.686842090341249,113.17578922042074,10.664722792012121)" fill="#1e88e5"><path d="M6.08 19.94 q-0.34 0.16 -0.77 0.26 t-0.89 0.1 q-0.64 0 -1.23 -0.17 t-1.03 -0.55 t-0.7 -0.99 t-0.26 -1.47 l0 -13.72 l2.94 0 l0 13.22 q0 0.72 0.29 0.99 t0.69 0.27 q0.5 0 0.96 -0.3 l0 2.36 z M19.42 14.219999999999999 q0 1.3 -0.48 2.41 t-1.32 1.92 t-1.97 1.28 t-2.41 0.47 t-2.4 -0.47 t-1.96 -1.29 t-1.32 -1.93 t-0.48 -2.39 q0 -1.26 0.49 -2.37 t1.33 -1.94 t1.96 -1.3 t2.38 -0.47 q1.28 0 2.41 0.47 t1.97 1.28 t1.32 1.93 t0.48 2.4 z M16.54 14.219999999999999 q0 -0.74 -0.26 -1.38 t-0.71 -1.12 t-1.05 -0.75 t-1.28 -0.27 t-1.28 0.27 t-1.05 0.75 t-0.71 1.12 t-0.26 1.38 t0.26 1.38 t0.71 1.12 t1.05 0.75 t1.28 0.27 t1.28 -0.27 t1.05 -0.75 t0.71 -1.12 t0.26 -1.38 z M31.84 10.72 l-1.22 0 q0.46 0.9 0.46 1.92 q0 0.78 -0.29 1.51 t-0.83 1.33 t-1.31 1.02 t-1.73 0.56 q-0.66 0.1 -0.99 0.31 t-0.33 0.42 t0.33 0.39 t0.99 0.24 q2.24 0.2 3.47 1.12 t1.23 2.44 q0 0.78 -0.38 1.44 t-1.09 1.14 t-1.71 0.74 t-2.24 0.26 q-1.26 0 -2.27 -0.26 t-1.73 -0.73 t-1.1 -1.13 t-0.38 -1.46 q0 -1.2 0.69 -2.01 t2.25 -1.21 q-0.48 -0.18 -0.69 -0.49 t-0.19 -0.63 t0.27 -0.61 t0.71 -0.45 q-0.52 -0.24 -0.99 -0.62 t-0.85 -0.88 t-0.6 -1.12 t-0.22 -1.32 q0 -0.94 0.4 -1.76 t1.08 -1.43 t1.58 -0.96 t1.9 -0.35 q0.98 0 1.82 0.3 l3.96 0 l0 2.28 z M28.22 12.64 q0 -0.44 -0.17 -0.82 t-0.46 -0.67 t-0.68 -0.46 t-0.83 -0.17 t-0.82 0.17 t-0.67 0.46 t-0.46 0.67 t-0.17 0.82 t0.17 0.83 t0.46 0.68 t0.67 0.46 t0.82 0.17 t0.83 -0.17 t0.68 -0.46 t0.46 -0.68 t0.17 -0.83 z M28.740000000000002 21.98 q0 -0.7 -0.71 -1.02 t-1.83 -0.32 q-1.2 0 -1.89 0.34 t-0.69 1 q0 0.68 0.72 1.02 t1.86 0.34 q1.16 0 1.85 -0.33 t0.69 -1.03 z M45.18 14.219999999999999 q0 1.3 -0.48 2.41 t-1.32 1.92 t-1.97 1.28 t-2.41 0.47 t-2.4 -0.47 t-1.96 -1.29 t-1.32 -1.93 t-0.48 -2.39 q0 -1.26 0.49 -2.37 t1.33 -1.94 t1.96 -1.3 t2.38 -0.47 q1.28 0 2.41 0.47 t1.97 1.28 t1.32 1.93 t0.48 2.4 z M42.3 14.219999999999999 q0 -0.74 -0.26 -1.38 t-0.71 -1.12 t-1.05 -0.75 t-1.28 -0.27 t-1.28 0.27 t-1.05 0.75 t-0.71 1.12 t-0.26 1.38 t0.26 1.38 t0.71 1.12 t1.05 0.75 t1.28 0.27 t1.28 -0.27 t1.05 -0.75 t0.71 -1.12 t0.26 -1.38 z" style="&#10;    fill: white;&#10;"/></g></svg>